# xmcd CD database file
#
# Track frame offsets:
#	150
#	16949
#	31051
#	45085
#	66676
#	78813
#	93004
#	105754
#	121126
#	135862
#
# Disc length: 2098 seconds
#
# Revision: 0
# Processed by: cddbd v1.5.2PL0 Copyright (c) Steve Scherf et al.
# Submitted via: jetAudio 7
#
DISCID=5f08300a
DTITLE=Nina Storey - Think Twice
DYEAR=1900
DGENRE=Blues
TTITLE0=Think Twice
TTITLE1=Gimmie Some
TTITLE2=Private Army
TTITLE3=This Naked Woman
TTITLE4=Come Back
TTITLE5=Strangely Optimistic
TTITLE6=Run For Cover
TTITLE7=Love Me Enough
TTITLE8=Waiting For Love
TTITLE9=Through Me
EXTD=2012 Release
EXTT0=2012 Release
EXTT1=2012 Release
EXTT2=2012 Release
EXTT3=2012 Release
EXTT4=2012 Release
EXTT5=2012 Release
EXTT6=2012 Release
EXTT7=2012 Release
EXTT8=2012 Release
EXTT9=2012 Release
PLAYORDER=
